<mxfile host="app.diagrams.net" modified="2020-10-10T09:16:34.058Z" agent="5.0 (Macintosh; Intel Mac OS X 10_14_4) AppleWebKit/537.36 (KHTML, like Gecko) Chrome/85.0.4183.121 Safari/537.36" etag="JheOaoZ781mfWud9X9Si" version="13.6.9" type="github">
  <diagram id="yNiw62XDUtwJEyBTDrlP" name="Page-1">
    <mxGraphModel dx="1426" dy="794" grid="1" gridSize="10" guides="1" tooltips="1" connect="1" arrows="1" fold="1" page="1" pageScale="1" pageWidth="827" pageHeight="1169" math="0" shadow="0">
      <root>
        <mxCell id="0" />
        <mxCell id="1" parent="0" />
        <mxCell id="AuYMYCJYV_zZmYxNTv_2-4" value="" style="rounded=0;whiteSpace=wrap;html=1;dashed=1;" vertex="1" parent="1">
          <mxGeometry x="80" y="120" width="620" height="260" as="geometry" />
        </mxCell>
        <mxCell id="AuYMYCJYV_zZmYxNTv_2-16" value="数据获取" style="edgeStyle=orthogonalEdgeStyle;rounded=0;orthogonalLoop=1;jettySize=auto;html=1;exitX=0.75;exitY=1;exitDx=0;exitDy=0;entryX=0.865;entryY=0.007;entryDx=0;entryDy=0;entryPerimeter=0;" edge="1" parent="1" source="AuYMYCJYV_zZmYxNTv_2-2" target="AuYMYCJYV_zZmYxNTv_2-5">
          <mxGeometry x="0.4111" y="4" relative="1" as="geometry">
            <mxPoint as="offset" />
          </mxGeometry>
        </mxCell>
        <mxCell id="AuYMYCJYV_zZmYxNTv_2-22" style="edgeStyle=orthogonalEdgeStyle;rounded=0;orthogonalLoop=1;jettySize=auto;html=1;exitX=0.5;exitY=0;exitDx=0;exitDy=0;entryX=1;entryY=0.5;entryDx=0;entryDy=0;startArrow=classic;startFill=1;" edge="1" parent="1" source="AuYMYCJYV_zZmYxNTv_2-2" target="AuYMYCJYV_zZmYxNTv_2-17">
          <mxGeometry relative="1" as="geometry" />
        </mxCell>
        <mxCell id="AuYMYCJYV_zZmYxNTv_2-23" value="数据请求" style="edgeLabel;html=1;align=center;verticalAlign=middle;resizable=0;points=[];" vertex="1" connectable="0" parent="AuYMYCJYV_zZmYxNTv_2-22">
          <mxGeometry x="-0.2348" y="33" relative="1" as="geometry">
            <mxPoint as="offset" />
          </mxGeometry>
        </mxCell>
        <mxCell id="AuYMYCJYV_zZmYxNTv_2-33" value="数据获取" style="edgeStyle=orthogonalEdgeStyle;rounded=0;orthogonalLoop=1;jettySize=auto;html=1;exitX=1;exitY=0.5;exitDx=0;exitDy=0;startArrow=none;startFill=0;" edge="1" parent="1" source="AuYMYCJYV_zZmYxNTv_2-2" target="AuYMYCJYV_zZmYxNTv_2-24">
          <mxGeometry relative="1" as="geometry" />
        </mxCell>
        <mxCell id="AuYMYCJYV_zZmYxNTv_2-2" value="api接口服务" style="rounded=0;whiteSpace=wrap;html=1;" vertex="1" parent="1">
          <mxGeometry x="520" y="260" width="120" height="60" as="geometry" />
        </mxCell>
        <mxCell id="AuYMYCJYV_zZmYxNTv_2-18" style="edgeStyle=orthogonalEdgeStyle;rounded=0;orthogonalLoop=1;jettySize=auto;html=1;exitX=0.5;exitY=0;exitDx=0;exitDy=0;entryX=0.5;entryY=1;entryDx=0;entryDy=0;startArrow=classic;startFill=1;" edge="1" parent="1" source="AuYMYCJYV_zZmYxNTv_2-3" target="AuYMYCJYV_zZmYxNTv_2-17">
          <mxGeometry relative="1" as="geometry" />
        </mxCell>
        <mxCell id="AuYMYCJYV_zZmYxNTv_2-21" value="实时数据接收" style="edgeLabel;html=1;align=center;verticalAlign=middle;resizable=0;points=[];" vertex="1" connectable="0" parent="AuYMYCJYV_zZmYxNTv_2-18">
          <mxGeometry x="0.0857" relative="1" as="geometry">
            <mxPoint as="offset" />
          </mxGeometry>
        </mxCell>
        <mxCell id="AuYMYCJYV_zZmYxNTv_2-3" value="websocket转发服务" style="rounded=0;whiteSpace=wrap;html=1;" vertex="1" parent="1">
          <mxGeometry x="320" y="260" width="120" height="60" as="geometry" />
        </mxCell>
        <mxCell id="AuYMYCJYV_zZmYxNTv_2-12" style="edgeStyle=orthogonalEdgeStyle;rounded=0;orthogonalLoop=1;jettySize=auto;html=1;exitX=0.261;exitY=-0.027;exitDx=0;exitDy=0;entryX=0.5;entryY=1;entryDx=0;entryDy=0;startArrow=classic;startFill=1;exitPerimeter=0;" edge="1" parent="1" source="AuYMYCJYV_zZmYxNTv_2-5" target="AuYMYCJYV_zZmYxNTv_2-3">
          <mxGeometry relative="1" as="geometry" />
        </mxCell>
        <mxCell id="AuYMYCJYV_zZmYxNTv_2-13" value="websocket实时数据接收" style="edgeLabel;html=1;align=center;verticalAlign=middle;resizable=0;points=[];" vertex="1" connectable="0" parent="AuYMYCJYV_zZmYxNTv_2-12">
          <mxGeometry x="-0.0667" y="4" relative="1" as="geometry">
            <mxPoint as="offset" />
          </mxGeometry>
        </mxCell>
        <mxCell id="AuYMYCJYV_zZmYxNTv_2-14" style="edgeStyle=orthogonalEdgeStyle;rounded=0;orthogonalLoop=1;jettySize=auto;html=1;exitX=0.616;exitY=0;exitDx=0;exitDy=0;entryX=0.4;entryY=0.983;entryDx=0;entryDy=0;entryPerimeter=0;exitPerimeter=0;" edge="1" parent="1" source="AuYMYCJYV_zZmYxNTv_2-5" target="AuYMYCJYV_zZmYxNTv_2-2">
          <mxGeometry relative="1" as="geometry" />
        </mxCell>
        <mxCell id="AuYMYCJYV_zZmYxNTv_2-15" value="巡检结果同步&lt;br&gt;巡检告警结果同步&lt;br&gt;机器人本体告警同步" style="edgeLabel;html=1;align=left;verticalAlign=middle;resizable=0;points=[];" vertex="1" connectable="0" parent="AuYMYCJYV_zZmYxNTv_2-14">
          <mxGeometry x="0.116" y="2" relative="1" as="geometry">
            <mxPoint x="-56" as="offset" />
          </mxGeometry>
        </mxCell>
        <mxCell id="AuYMYCJYV_zZmYxNTv_2-5" value="" style="rounded=0;whiteSpace=wrap;html=1;dashed=1;" vertex="1" parent="1">
          <mxGeometry x="80" y="520" width="620" height="150" as="geometry" />
        </mxCell>
        <mxCell id="AuYMYCJYV_zZmYxNTv_2-6" value="国自机器人主站系统" style="rounded=0;whiteSpace=wrap;html=1;" vertex="1" parent="1">
          <mxGeometry x="120" y="590" width="250" height="60" as="geometry" />
        </mxCell>
        <mxCell id="AuYMYCJYV_zZmYxNTv_2-7" value="亿嘉和机器人主站系统" style="rounded=0;whiteSpace=wrap;html=1;" vertex="1" parent="1">
          <mxGeometry x="410" y="590" width="250" height="60" as="geometry" />
        </mxCell>
        <mxCell id="AuYMYCJYV_zZmYxNTv_2-8" value="websocket服务" style="rounded=0;whiteSpace=wrap;html=1;" vertex="1" parent="1">
          <mxGeometry x="120" y="540" width="120" height="30" as="geometry" />
        </mxCell>
        <mxCell id="AuYMYCJYV_zZmYxNTv_2-9" value="http服务" style="rounded=0;whiteSpace=wrap;html=1;" vertex="1" parent="1">
          <mxGeometry x="250" y="540" width="120" height="30" as="geometry" />
        </mxCell>
        <mxCell id="AuYMYCJYV_zZmYxNTv_2-10" value="websocket服务" style="rounded=0;whiteSpace=wrap;html=1;" vertex="1" parent="1">
          <mxGeometry x="410" y="540" width="120" height="30" as="geometry" />
        </mxCell>
        <mxCell id="AuYMYCJYV_zZmYxNTv_2-11" value="http服务" style="rounded=0;whiteSpace=wrap;html=1;" vertex="1" parent="1">
          <mxGeometry x="540" y="540" width="120" height="30" as="geometry" />
        </mxCell>
        <mxCell id="AuYMYCJYV_zZmYxNTv_2-36" style="edgeStyle=orthogonalEdgeStyle;rounded=0;orthogonalLoop=1;jettySize=auto;html=1;exitX=0;exitY=0.5;exitDx=0;exitDy=0;entryX=1;entryY=0.5;entryDx=0;entryDy=0;startArrow=none;startFill=0;" edge="1" parent="1" source="AuYMYCJYV_zZmYxNTv_2-17" target="AuYMYCJYV_zZmYxNTv_2-35">
          <mxGeometry relative="1" as="geometry" />
        </mxCell>
        <mxCell id="AuYMYCJYV_zZmYxNTv_2-37" value="引入" style="edgeLabel;html=1;align=center;verticalAlign=middle;resizable=0;points=[];" vertex="1" connectable="0" parent="AuYMYCJYV_zZmYxNTv_2-36">
          <mxGeometry x="0.1143" y="2" relative="1" as="geometry">
            <mxPoint x="1" y="-3" as="offset" />
          </mxGeometry>
        </mxCell>
        <mxCell id="AuYMYCJYV_zZmYxNTv_2-17" value="前端界面" style="rounded=0;whiteSpace=wrap;html=1;" vertex="1" parent="1">
          <mxGeometry x="320" y="150" width="120" height="40" as="geometry" />
        </mxCell>
        <mxCell id="AuYMYCJYV_zZmYxNTv_2-24" value="" style="rounded=0;whiteSpace=wrap;html=1;dashed=1;" vertex="1" parent="1">
          <mxGeometry x="810" y="120" width="120" height="320" as="geometry" />
        </mxCell>
        <mxCell id="AuYMYCJYV_zZmYxNTv_2-25" value="sis系统" style="rounded=0;whiteSpace=wrap;html=1;" vertex="1" parent="1">
          <mxGeometry x="825" y="150" width="90" height="40" as="geometry" />
        </mxCell>
        <mxCell id="AuYMYCJYV_zZmYxNTv_2-27" value="人员定位系统" style="rounded=0;whiteSpace=wrap;html=1;" vertex="1" parent="1">
          <mxGeometry x="825" y="220" width="90" height="40" as="geometry" />
        </mxCell>
        <mxCell id="AuYMYCJYV_zZmYxNTv_2-28" value="摄像头系统" style="rounded=0;whiteSpace=wrap;html=1;" vertex="1" parent="1">
          <mxGeometry x="825" y="290" width="90" height="40" as="geometry" />
        </mxCell>
        <mxCell id="AuYMYCJYV_zZmYxNTv_2-29" value="操作票/工作票" style="rounded=0;whiteSpace=wrap;html=1;" vertex="1" parent="1">
          <mxGeometry x="827" y="360" width="90" height="40" as="geometry" />
        </mxCell>
        <mxCell id="AuYMYCJYV_zZmYxNTv_2-30" value="数字孪生三维展示系统" style="rounded=0;whiteSpace=wrap;html=1;dashed=1;" vertex="1" parent="1">
          <mxGeometry x="80" y="90" width="150" height="30" as="geometry" />
        </mxCell>
        <mxCell id="AuYMYCJYV_zZmYxNTv_2-31" value="第三方系统" style="rounded=0;whiteSpace=wrap;html=1;dashed=1;" vertex="1" parent="1">
          <mxGeometry x="810" y="90" width="100" height="30" as="geometry" />
        </mxCell>
        <mxCell id="AuYMYCJYV_zZmYxNTv_2-32" value="机器人主站系统" style="rounded=0;whiteSpace=wrap;html=1;dashed=1;" vertex="1" parent="1">
          <mxGeometry x="80" y="490" width="150" height="30" as="geometry" />
        </mxCell>
        <mxCell id="AuYMYCJYV_zZmYxNTv_2-35" value="三维库文件" style="rounded=0;whiteSpace=wrap;html=1;dashed=1;" vertex="1" parent="1">
          <mxGeometry x="120" y="150" width="120" height="40" as="geometry" />
        </mxCell>
      </root>
    </mxGraphModel>
  </diagram>
</mxfile>
